<svg xmlns="http://www.w3.org/2000/svg" width="1200" height="900" viewBox="0 0 1200 900" role="img" aria-label="News brief storyboard reference">
  <rect width="1200" height="900" fill="#171717"/>
  <text x="60" y="70" fill="#FFFFFF" font-family="Arial, sans-serif" font-size="34" font-weight="700">NEWS BRIEF · 45s · BLOOMBERG</text>
  <g font-family="Arial, sans-serif">
    <g transform="translate(60,120)"><rect width="240" height="600" rx="20" fill="#F8FAFC"/><text x="24" y="66" fill="#171717" font-size="24" font-weight="700">01 FACT</text><rect x="24" y="110" width="192" height="8" fill="#FF7A00"/><text x="24" y="186" fill="#171717" font-size="22">what happened</text><text x="24" y="550" fill="#EA580C" font-size="18">0–6s</text></g>
    <g transform="translate(330,120)"><rect width="240" height="600" rx="20" fill="#F8FAFC"/><text x="24" y="66" fill="#171717" font-size="24" font-weight="700">02 SOURCE</text><rect x="24" y="120" width="192" height="220" rx="10" fill="#E5E7EB"/><text x="24" y="550" fill="#EA580C" font-size="18">6–15s</text></g>
    <g transform="translate(600,120)"><rect width="240" height="600" rx="20" fill="#F8FAFC"/><text x="24" y="66" fill="#171717" font-size="24" font-weight="700">03 DATA</text><path d="M36 430 L84 350 L132 390 L204 210" stroke="#FF7A00" stroke-width="10" fill="none"/><text x="24" y="550" fill="#EA580C" font-size="18">15–32s</text></g>
    <g transform="translate(870,120)"><rect width="240" height="600" rx="20" fill="#F8FAFC"/><text x="24" y="66" fill="#171717" font-size="24" font-weight="700">04 CONTEXT</text><text x="24" y="180" fill="#171717" font-size="22">why it matters</text><rect x="24" y="260" width="192" height="100" rx="12" fill="#FF7A00"/><text x="24" y="550" fill="#EA580C" font-size="18">32–45s</text></g>
  </g>
  <text x="60" y="800" fill="#D1D5DB" font-family="Arial, sans-serif" font-size="24">Facts and sources appear before interpretation; orange marks only the key data path.</text>
</svg>
